{"asset":{"version":"2.0","generator":"Unity 2022.3.44f1 glTFast 6.14.0"},"nodes":[{"name":"Rose_fixed_basisMesh","mesh":0}],"buffers":[{"uri":"Rose_fixed_basisMesh.bin","byteLength":736704}],"bufferViews":[{"buffer":0,"byteLength":302400,"target":34963},{"buffer":0,"byteLength":434304,"byteOffset":302400,"byteStride":24,"target":34962}],"accessors":[{"bufferView":1,"componentType":5126,"count":18096,"type":"VEC3","max":[0.0133930352,0.101231724,0.03353034],"min":[-0.0291364361,-0.00189905986,-0.0157057215]},{"bufferView":1,"componentType":5126,"count":18096,"type":"VEC3","byteOffset":12},{"bufferView":0,"componentType":5125,"count":75600,"type":"SCALAR"}],"meshes":[{"name":"Rose_fixed_basisMesh","primitives":[{"attributes":{"POSITION":0,"NORMAL":1},"indices":2}]}],"scene":0,"scenes":[{"name":"Rose_fixed_basisMesh","nodes":[0]}]}